<?xml version="1.0" encoding="UTF-8"?>
<svg version="1.1" xmlns="http://www.w3.org/2000/svg" width="536" height="465">
<path d="M0 0 C0.8627504 -0.00744736 1.72550079 -0.01489471 2.61439514 -0.02256775 C5.46036295 -0.03805102 8.3031941 -0.00310061 11.14892578 0.03393555 C13.1422607 0.03684237 15.13560075 0.03722352 17.12893677 0.03520203 C21.31051079 0.03841876 25.4910341 0.06537056 29.67236328 0.11035156 C34.98901045 0.16665249 40.30433282 0.1752441 45.62122917 0.16694355 C49.74303106 0.16412047 53.86454654 0.18189638 57.9862709 0.20607567 C59.9435344 0.21618046 61.90083039 0.22138421 63.85811996 0.22127724 C79.18723092 0.24372356 93.52148793 1.52948095 107.21923828 9.1081543 C107.91017578 9.47166992 108.60111328 9.83518555 109.31298828 10.2097168 C110.9565991 11.07717806 112.58934691 11.9651819 114.21923828 12.8581543 C114.21923828 13.5181543 114.21923828 14.1781543 114.21923828 14.8581543 C114.92048828 15.0850293 115.62173828 15.3119043 116.34423828 15.5456543 C128.72001115 21.19546365 138.19302391 36.29826737 142.93505859 48.7355957 C145.71341746 57.00452089 147.62796288 66.09782377 147.21923828 74.8581543 C144.7779516 77.29944098 144.14843014 77.1103413 140.80126953 77.11694336 C139.42974731 77.12639984 139.42974731 77.12639984 138.03051758 77.13604736 C137.04092041 77.1319989 136.05132324 77.12795044 135.03173828 77.1237793 C134.01829346 77.12569275 133.00484863 77.1276062 131.96069336 77.12957764 C129.81542717 77.13094021 127.67015275 77.12723877 125.52490234 77.11889648 C122.23272256 77.10819812 118.9410885 77.11878949 115.64892578 77.1315918 C113.5681954 77.13027022 111.48746537 77.12770785 109.40673828 77.1237793 C108.41714111 77.12782776 107.42754395 77.13187622 106.40795898 77.13604736 C105.49361084 77.12974304 104.5792627 77.12343872 103.63720703 77.11694336 C102.83049561 77.11535217 102.02378418 77.11376099 101.19262695 77.11212158 C99.21923828 76.8581543 99.21923828 76.8581543 97.21923828 74.8581543 C96.63498485 72.37399524 96.26706171 69.88768533 95.87939453 67.3659668 C95.14992268 64.59483702 93.98311264 63.07861738 92.21923828 60.8581543 C92.21923828 60.1981543 92.21923828 59.5381543 92.21923828 58.8581543 C91.55923828 58.8581543 90.89923828 58.8581543 90.21923828 58.8581543 C89.51798828 58.0950293 88.81673828 57.3319043 88.09423828 56.5456543 C81.94565891 50.79806923 74.22224326 49.59351518 65.97314453 49.7409668 C58.79335553 51.87771982 55.96631081 58.44730978 52.47460938 64.67211914 C50.54809501 68.0268468 48.36503225 71.1849104 46.15673828 74.3581543 C45.44388672 75.4203418 44.73103516 76.4825293 43.99658203 77.5769043 C43.11679687 78.70612305 43.11679687 78.70612305 42.21923828 79.8581543 C41.55923828 79.8581543 40.89923828 79.8581543 40.21923828 79.8581543 C39.96529297 80.57487305 39.71134766 81.2915918 39.44970703 82.0300293 C38.12268981 85.08006254 36.51594751 87.44175132 34.53173828 90.1081543 C33.82404297 91.06206055 33.11634766 92.0159668 32.38720703 92.9987793 C29.84460435 96.35226608 27.27423078 99.68160565 24.66455078 102.9831543 C23.44972701 104.55914189 22.32301274 106.20249261 21.21923828 107.8581543 C20.55923828 107.8581543 19.89923828 107.8581543 19.21923828 107.8581543 C18.97044922 108.42147461 18.72166016 108.98479492 18.46533203 109.56518555 C8.30152542 128.26786417 -14.29677809 139.51338262 -33.79882812 145.33666992 C-55.55769284 151.06184053 -83.26597159 146.78574862 -102.77685547 135.66674805 C-104.26378906 134.77149414 -104.26378906 134.77149414 -105.78076172 133.8581543 C-105.26971497 129.20676272 -103.16172201 126.10530798 -100.46826172 122.4206543 C-99.68001002 121.3181408 -98.8922468 120.21527788 -98.10498047 119.11206055 C-96.95449219 117.50137695 -96.95449219 117.50137695 -95.78076172 115.8581543 C-95.05608062 114.72272535 -94.33331591 113.58607022 -93.61279297 112.44799805 C-93.00822266 111.59334961 -92.40365234 110.73870117 -91.78076172 109.8581543 C-91.12076172 109.8581543 -90.46076172 109.8581543 -89.78076172 109.8581543 C-89.53326172 109.1362793 -89.28576172 108.4144043 -89.03076172 107.6706543 C-87.64769681 104.55875825 -85.98953255 102.44557156 -83.78076172 99.8581543 C-83.43271484 99.30256836 -83.08466797 98.74698242 -82.72607422 98.17456055 C-81.59326172 96.4831543 -81.59326172 96.4831543 -78.78076172 93.8581543 C-75.44353065 93.8581543 -72.99129813 94.16577865 -69.78076172 94.8581543 C-57.34235018 97.18338872 -44.10010434 98.55162772 -33.13232422 91.0456543 C-18.69685212 79.7237154 -8.20550139 64.75063955 2.21923828 49.8581543 C-12.96076172 49.8581543 -28.14076172 49.8581543 -43.78076172 49.8581543 C-42.77180005 44.81334597 -41.96712009 43.43169516 -38.78076172 39.6706543 C-35.99444296 36.45219458 -35.99444296 36.45219458 -33.78076172 32.8581543 C-33.12076172 32.8581543 -32.46076172 32.8581543 -31.78076172 32.8581543 C-31.67763672 32.2806543 -31.57451172 31.7031543 -31.46826172 31.1081543 C-30.66282773 28.47218851 -29.52388184 26.98863445 -27.78076172 24.8581543 C-24.09648509 20.27361295 -20.5831058 15.58132848 -17.08935547 10.8503418 C-16.32751953 9.86291992 -15.56568359 8.87549805 -14.78076172 7.8581543 C-14.37510923 7.26636981 -13.96945675 6.67458532 -13.55151176 6.06486797 C-9.54306476 0.66617617 -6.56576586 -0.1541636 0 0 Z " fill="#040404" transform="translate(225.78076171875,184.141845703125)"/>
<path d="M0 0 C4.95363129 0.33967757 7.52322488 1.79908886 11.25 5 C14.43315984 7.79108114 14.43315984 7.79108114 18 10 C18 10.66 18 11.32 18 12 C18.680625 12.20625 19.36125 12.4125 20.0625 12.625 C23.24558485 14.11495461 25.29764542 15.88019743 27.88671875 18.2109375 C31.3535032 21.14584929 35.11139428 23.67628459 38.83984375 26.265625 C39.55269531 26.83796875 40.26554687 27.4103125 41 28 C41 28.66 41 29.32 41 30 C41.556875 30.268125 42.11375 30.53625 42.6875 30.8125 C45.21225334 32.10899496 47.63714484 33.42476323 50 35 C50 35.66 50 36.32 50 37 C50.53109375 37.23332031 51.0621875 37.46664062 51.609375 37.70703125 C54.73076208 39.39523243 57.46000053 41.51241106 60.25 43.6875 C60.82194092 44.13013184 61.39388184 44.57276367 61.9831543 45.02880859 C66.46706985 48.52465704 70.79906785 52.16712535 75 56 C74.71974807 60.62415687 72.65544798 62.83245154 69.68457031 66.10839844 C66.86176071 69.27812725 64.39612613 72.71406465 61.875 76.125 C59.9233434 78.7550662 57.96573557 81.38044059 56 84 C55.26007813 84.98742187 54.52015625 85.97484375 53.7578125 86.9921875 C53.17773438 87.65476562 52.59765625 88.31734375 52 89 C51.34 89 50.68 89 50 89 C49.87625 89.61875 49.7525 90.2375 49.625 90.875 C49 93 49 93 47 95 C43.17687155 94.7210593 40.95528342 92.54235453 38.125 90.125 C37.16851562 89.32191406 36.21203125 88.51882813 35.2265625 87.69140625 C34.71125977 87.25844238 34.19595703 86.82547852 33.66503906 86.37939453 C30.6540447 83.88494906 27.57643482 81.47540577 24.5 79.0625 C23.90074707 78.59021973 23.30149414 78.11793945 22.68408203 77.63134766 C20.17068232 75.65883328 17.65992595 73.77328397 15 72 C15 71.34 15 70.68 15 70 C14.2575 69.731875 13.515 69.46375 12.75 69.1875 C10.10938051 68.04723249 8.14447156 66.90619694 6 65 C6 64.34 6 63.68 6 63 C5.2575 62.731875 4.515 62.46375 3.75 62.1875 C1.10938051 61.04723249 -0.85552844 59.90619694 -3 58 C-3 57.34 -3 56.68 -3 56 C-4.08474609 55.62488281 -4.08474609 55.62488281 -5.19140625 55.2421875 C-8.24719731 53.89066934 -10.38021 52.26617488 -12.9375 50.125 C-15.75959917 47.79645181 -18.52462965 45.56917523 -21.625 43.625 C-22.40875 43.08875 -23.1925 42.5525 -24 42 C-24 41.34 -24 40.68 -24 40 C-25.32 39.34 -26.64 38.68 -28 38 C-26.61638131 33.57242019 -24.15757738 30.37264785 -21.33984375 26.76953125 C-19.94046713 25.03375555 -19.94046713 25.03375555 -19 23 C-18.34 23 -17.68 23 -17 23 C-16.73574219 22.42636719 -16.47148437 21.85273438 -16.19921875 21.26171875 C-14.93519517 18.87777851 -13.49212009 16.9225948 -11.8125 14.8125 C-10.89017578 13.64654297 -10.89017578 13.64654297 -9.94921875 12.45703125 C-9.30597656 11.64621094 -8.66273438 10.83539063 -8 10 C-6.70685986 8.33447631 -5.41512887 6.66785732 -4.125 5 C-1.12307692 1.12307692 -1.12307692 1.12307692 0 0 Z " fill="#060606" transform="translate(292,261)"/>
<path d="M0 0 C6.55932245 5.19498338 11.30887191 11.28109209 12.3359375 19.67578125 C12.83637588 29.58663699 10.52274955 37.0414232 4.16015625 44.70703125 C-1.73391228 50.43096172 -9.45939601 53.64039682 -17.671875 53.984375 C-26.96129076 53.5024554 -34.4729257 49.50562915 -40.734375 42.734375 C-46.80219026 35.37782022 -47.65148459 29.79520069 -47.47265625 20.2890625 C-46.68866017 13.3985281 -43.47478729 7.80576279 -39.046875 2.546875 C-38.386875 2.546875 -37.726875 2.546875 -37.046875 2.546875 C-37.046875 1.886875 -37.046875 1.226875 -37.046875 0.546875 C-35.48835745 -0.27323812 -33.92485784 -1.08388713 -32.359375 -1.890625 C-31.48925781 -2.34308594 -30.61914062 -2.79554687 -29.72265625 -3.26171875 C-19.86168873 -7.65236852 -8.77609571 -5.87376484 0 0 Z " fill="#080708" transform="translate(312.046875,117.453125)"/>
<path d="M0 0 C0.33 0.66 0.66 1.32 1 2 C16.51 2 32.02 2 48 2 C47 7 47 7 45 9 C44.01 8.67 43.02 8.34 42 8 C43.32 6.35 44.64 4.7 46 3 C30.82 3 15.64 3 0 3 C0 2.01 0 1.02 0 0 Z " fill="#3A3839" transform="translate(182,231)"/>
<path d="M0 0 C1.32 0.66 2.64 1.32 4 2 C3.01 2.495 3.01 2.495 2 3 C1.65657551 4.33076989 1.32380126 5.66431979 1 7 C0.34 7.66 -0.32 8.32 -1 9 C-5.24719772 8.84831437 -7.98562093 5.67183599 -11 3 C-9 2 -9 2 -6.0625 2.625 C-3.0172426 3.36073264 -3.0172426 3.36073264 -1.125 1.5625 C-0.75375 1.046875 -0.3825 0.53125 0 0 Z " fill="#3C3839" transform="translate(340,347)"/>
<path d="M0 0 C4.01537572 0.33461464 7.93195645 0.7964944 11.890625 1.55078125 C21.12694234 3.25648307 29.71129518 2.82319061 39 2 C38.67 2.66 38.34 3.32 38 4 C27.91631631 6.2408186 15.9613165 5.88945441 6.0625 2.875 C3.11646012 1.66021801 3.11646012 1.66021801 1 3 C0.34 2.34 -0.32 1.68 -1 1 C-0.67 0.67 -0.34 0.34 0 0 Z " fill="#504F51" transform="translate(147,278)"/>
<path d="M0 0 C1.0859375 3.7421875 1.0859375 3.7421875 0.3125 6.0625 C-1.19049759 8.28121072 -2.83529214 9.44411623 -5 11 C-5.99 12.485 -5.99 12.485 -7 14 C-9.625 14.6875 -9.625 14.6875 -12 15 C-8.19695186 9.80789528 -4.23841458 4.84390238 0 0 Z " fill="#474446" transform="translate(213,254)"/>
<path d="M0 0 C0.66 0.33 1.32 0.66 2 1 C1.01 3.31 0.02 5.62 -1 8 C-1.66 8 -2.32 8 -3 8 C-3.33 9.65 -3.66 11.3 -4 13 C-4.99 12.67 -5.98 12.34 -7 12 C-6.0022242 14.99332739 -5.2477975 15.94766315 -3 18 C-3.66 18.33 -4.32 18.66 -5 19 C-5 18.34 -5 17.68 -5 17 C-6.32 16.34 -7.64 15.68 -9 15 C-7.61638131 10.57242019 -5.15757738 7.37264785 -2.33984375 3.76953125 C-0.94046713 2.03375555 -0.94046713 2.03375555 0 0 Z " fill="#3A383B" transform="translate(273,284)"/>
<path d="M0 0 C-6.53477332 2.73605462 -12.81819046 5.28674088 -20 4 C-20.99 3.34 -21.98 2.68 -23 2 C-21.21142578 1.80083984 -21.21142578 1.80083984 -19.38671875 1.59765625 C-17.82029322 1.41944017 -16.25388802 1.24104544 -14.6875 1.0625 C-13.90181641 0.97548828 -13.11613281 0.88847656 -12.30664062 0.79882812 C-11.54931641 0.71181641 -10.79199219 0.62480469 -10.01171875 0.53515625 C-9.31522217 0.456604 -8.61872559 0.37805176 -7.90112305 0.29711914 C-1.91519496 -0.63839832 -1.91519496 -0.63839832 0 0 Z " fill="#615F5F" transform="translate(310,167)"/>
<path d="M0 0 C0 3 0 3 -1 6 C-1.99 6.495 -1.99 6.495 -3 7 C-3 8.32 -3 9.64 -3 11 C-4.8125 12.8125 -4.8125 12.8125 -7 14 C-7.99 13.67 -8.98 13.34 -10 13 C-8.5217985 11.02010587 -7.0424882 9.04105782 -5.5625 7.0625 C-5.14162109 6.49853516 -4.72074219 5.93457031 -4.28710938 5.35351562 C-1.11328125 1.11328125 -1.11328125 1.11328125 0 0 Z " fill="#545253" transform="translate(215,187)"/>
<path d="M0 0 C0.99 0.33 1.98 0.66 3 1 C-1.625 6.875 -1.625 6.875 -5 8 C-5 4 -5 4 -2.6875 1.6875 C-1.800625 1.130625 -0.91375 0.57375 0 0 Z " fill="#373435" transform="translate(236,299)"/>
<path d="M0 0 C3.0625 0.25 3.0625 0.25 6 1 C6.33 1.66 6.66 2.32 7 3 C6.29875 3.12375 5.5975 3.2475 4.875 3.375 C1.82343613 4.03838345 -1.05340938 4.97211955 -4 6 C-2.84826645 3.53199953 -1.95216435 1.95216435 0 0 Z " fill="#424144" transform="translate(292,261)"/>
<path d="M0 0 C0.66 0 1.32 0 2 0 C2.33 0.99 2.66 1.98 3 3 C1.21653709 6.03188696 0.40424844 6.86525052 -3 8 C-3.33 8.66 -3.66 9.32 -4 10 C-4.66 9.67 -5.32 9.34 -6 9 C-5.05016642 7.49460339 -4.08988109 5.99579653 -3.125 4.5 C-2.59132812 3.6646875 -2.05765625 2.829375 -1.5078125 1.96875 C-0.76144531 0.99421875 -0.76144531 0.99421875 0 0 Z " fill="#4A4546" transform="translate(192,217)"/>
<path d="M0 0 C1 2 1 2 -0.125 5.5625 C-1.053125 7.2640625 -1.053125 7.2640625 -2 9 C-4.6171875 9.71484375 -4.6171875 9.71484375 -7 10 C-6.02223933 8.51990357 -5.0427506 7.04094856 -4.0625 5.5625 C-3.51722656 4.73878906 -2.97195312 3.91507813 -2.41015625 3.06640625 C-1 1 -1 1 0 0 Z " fill="#413F3F" transform="translate(221,244)"/>
<path d="M0 0 C3.81684226 1.55500981 6.19195732 4.03595495 9 7 C6.03 6.505 6.03 6.505 3 6 C3 5.01 3 4.02 3 3 C1.68 3.33 0.36 3.66 -1 4 C-0.67 2.68 -0.34 1.36 0 0 Z " fill="#484648" transform="translate(313,275)"/>
<path d="M0 0 C0.66 0.33 1.32 0.66 2 1 C-2.30769231 6.84615385 -2.30769231 6.84615385 -6 8 C-7.34313401 7.70865843 -8.67913658 7.37974823 -10 7 C-9.44570312 6.66226562 -8.89140625 6.32453125 -8.3203125 5.9765625 C-7.59585938 5.53054688 -6.87140625 5.08453125 -6.125 4.625 C-5.04605469 3.96371094 -5.04605469 3.96371094 -3.9453125 3.2890625 C-1.88206418 2.0146287 -1.88206418 2.0146287 0 0 Z " fill="#5E595B" transform="translate(196,272)"/>
<path d="M0 0 C0.33 0.66 0.66 1.32 1 2 C-0.4726862 5.27263601 -1.42695432 6.72014048 -4.6875 8.3125 C-5.450625 8.539375 -6.21375 8.76625 -7 9 C-6.02180976 7.68677212 -5.0424189 6.37443848 -4.0625 5.0625 C-3.51722656 4.33160156 -2.97195312 3.60070312 -2.41015625 2.84765625 C-1 1 -1 1 0 0 Z " fill="#635A60" transform="translate(201,206)"/>
<path d="M0 0 C2.93200474 2.85276137 5.64315404 5.65079784 8 9 C5.525 8.01 5.525 8.01 3 7 C3 6.34 3 5.68 3 5 C2.34 5 1.68 5 1 5 C0.67 3.35 0.34 1.7 0 0 Z M1 7 C3 8 3 8 3 8 Z " fill="#444344" transform="translate(313,119)"/>
<path d="M0 0 C0.99 0.66 1.98 1.32 3 2 C1.02 4.97 1.02 4.97 -1 8 C-1.66 6.68 -2.32 5.36 -3 4 C-2.34 4 -1.68 4 -1 4 C-0.67 2.68 -0.34 1.36 0 0 Z " fill="#272525" transform="translate(263,264)"/>
<path d="M0 0 C0.66 0.33 1.32 0.66 2 1 C0.25 4 0.25 4 -2 7 C-3.32 7 -4.64 7 -6 7 C-5.67 6.01 -5.34 5.02 -5 4 C-4.34 4 -3.68 4 -3 4 C-3 3.34 -3 2.68 -3 2 C-2.01 1.34 -1.02 0.68 0 0 Z " fill="#474346" transform="translate(278,116)"/>
<path d="M0 0 C1.53445094 3.06890187 0.54984289 5.70094266 0 9 C-0.99 8.67 -1.98 8.34 -3 8 C-2.45276317 4.62537285 -1.9451 2.91765 0 0 Z " fill="#545253" transform="translate(123,310)"/>
<path d="M0 0 C0.86625 0.495 0.86625 0.495 1.75 1 C4.19883862 2.27075898 4.19883862 2.27075898 8 2 C8.33 3.32 8.66 4.64 9 6 C4.58763974 6 3.21615077 3.9302707 0 1 C0 0.67 0 0.34 0 0 Z " fill="#494748" transform="translate(277,308)"/>
<path d="M0 0 C1.65 1.65 3.3 3.3 5 5 C3.1875 5.625 3.1875 5.625 1 6 C0.01 5.34 -0.98 4.68 -2 4 C-1.34 2.68 -0.68 1.36 0 0 Z " fill="#3D3D3D" transform="translate(323,282)"/>
<path d="M0 0 C2.3431213 0.25561323 4.67843403 0.59270772 7 1 C7.33 1.66 7.66 2.32 8 3 C7.01 4.485 7.01 4.485 6 6 C5.01 5.34 4.02 4.68 3 4 C3 3.34 3 2.68 3 2 C2.01 1.67 1.02 1.34 0 1 C0 0.67 0 0.34 0 0 Z " fill="#2B292A" transform="translate(304,329)"/>
<path d="M0 0 C0.66 0.33 1.32 0.66 2 1 C0.75 4.4375 0.75 4.4375 -1 8 C-3.1875 8.9375 -3.1875 8.9375 -5 9 C-3.50163895 5.88801935 -1.80066242 2.9465385 0 0 Z " fill="#555455" transform="translate(273,284)"/>
</svg>
